<svg width="415px" height="80px" xmlns="http://www.w3.org/2000/svg" viewBox="50 30 415 80" style="background: rgba(0, 0, 0, 0);" preserveAspectRatio="xMidYMid"><defs><filter id="editing-extrude-glow"><feFlood flood-color="rgba(0%,0%,0%,0)" result="flood-1"></feFlood><feMorphology operator="erode" radius="1" in="SourceAlpha" result="erode"></feMorphology><feComposite operator="in" in="flood-1" in2="erode" result="comp1"></feComposite><feConvolveMatrix order="3,3" divisor="1" in="comp1" result="convolve" kernelMatrix="0 0 0 1 1 1 0 0 0"></feConvolveMatrix><feOffset dx="-3" dy="0" in="convolve" result="extrude"></feOffset><feComposite operator="in" in="flood-1" in2="extrude" result="comp-extrude"></feComposite><feFlood flood-color="rgba(0%,0%,0%,0)" result="flood-2"></feFlood><feComposite operator="in" in="flood-2" in2="SourceAlpha" result="comp2"></feComposite><feMorphology operator="dilate" radius="1" in="comp2" result="dilate"></feMorphology><feOffset dx="-4.5" dy="0" in="dilate" result="offset"></feOffset><feGaussianBlur in="offset" stdDeviation="5.8" result="blur"></feGaussianBlur><feComponentTransfer in="blur" result="shadow"><feFuncA type="linear" slope="0.8" intercept="-0.2"></feFuncA></feComponentTransfer><feMerge><feMergeNode in="shadow"></feMergeNode><feMergeNode in="comp-extrude"></feMergeNode><feMergeNode in="SourceGraphic"></feMergeNode></feMerge></filter></defs><g filter="url(#editing-extrude-glow)"><g transform="translate(57.041872560977936, 101.34000015258789)"><path d="M54.98-37.89L54.98-37.89L54.98-37.89Q54.98-32.83 50.05-25.98L50.05-25.98L50.05-25.98Q46.21-20.61 39.84-17.34L39.84-17.34L39.84-17.34Q33.47-14.08 28.10-14.08L28.10-14.08L28.10-14.08Q26.11-14.08 24.77-14.53L24.77-14.53L24.77-14.53Q22.08-11.07 16.13-3.71L16.13-3.71L16.13-3.71Q18.37-0.51 24.22 2.30L24.22 2.30L24.22 2.30Q30.08 5.12 34.30 5.12L34.30 5.12L34.30 5.12Q38.53 5.12 40.58 3.97L40.58 3.97L40.58 3.97Q43.39 2.50 43.39-0.26L43.39-0.26L43.39-0.26Q43.39-0.96 43.26-1.60L43.26-1.60L43.26-1.60Q43.14-2.24 43.68-2.24L43.68-2.24L43.68-2.24Q44.22-2.24 44.64-1.31L44.64-1.31L44.64-1.31Q45.06-0.38 45.06 0.32L45.06 0.32L45.06 0.32Q45.06 2.56 42.69 4.54L42.69 4.54L42.69 4.54Q39.68 6.98 34.50 6.98L34.50 6.98L34.50 6.98Q29.31 6.98 23.74 4.54L23.74 4.54L23.74 4.54Q18.18 2.11 14.59-2.05L14.59-2.05L14.59-2.05Q9.47 3.07 4.86 3.07L4.86 3.07L4.86 3.07Q3.46 3.07 2.43 2.56L2.43 2.56L2.43 2.56Q0.19 1.28 0.19-2.30L0.19-2.30L0.19-2.30Q0.19-5.89 3.17-11.14L3.17-11.14L3.17-11.14Q6.14-16.38 7.87-16.70L7.87-16.70L7.87-16.70Q9.02-16.70 10.50-14.08L10.50-14.08L14.53-6.27L14.53-6.27Q17.92-10.75 21.63-16.06L21.63-16.06L21.63-16.06Q16.38-18.43 16.38-22.91L16.38-22.91L16.38-22.91Q16.38-26.62 19.39-28.93L19.39-28.93L19.39-28.93Q21.06-30.14 22.94-30.14L22.94-30.14L22.94-30.14Q24.83-30.14 25.79-28.16L25.79-28.16L25.79-28.16Q25.98-27.78 25.82-27.68L25.82-27.68L25.82-27.68Q25.66-27.58 25.60-27.65L25.60-27.65L25.60-27.65Q24.32-28.93 22.85-28.93L22.85-28.93L22.85-28.93Q22.78-28.93 22.72-28.93L22.72-28.93L22.72-28.93Q20.86-28.93 19.49-26.94L19.49-26.94L19.49-26.94Q18.11-24.96 18.11-23.30L18.11-23.30L18.11-23.30Q18.11-23.10 18.11-22.91L18.11-22.91L18.11-22.91Q18.11-19.58 22.72-17.22L22.72-17.22L22.72-17.22Q23.49-18.30 25.18-20.83L25.18-20.83L25.18-20.83Q26.88-23.36 27.84-24.77L27.84-24.77L27.84-24.77Q40.58-43.46 49.02-43.46L49.02-43.46L49.02-43.46Q54.98-43.46 54.98-37.89ZM49.28-42.37L49.28-42.37L49.28-42.37Q46.08-42.37 41.34-36.99L41.34-36.99L41.34-36.99Q38.08-33.22 33.70-26.85L33.70-26.85L33.70-26.85Q29.31-20.48 25.79-15.94L25.79-15.94L25.79-15.94Q26.62-15.74 27.65-15.74L27.65-15.74L27.65-15.74Q32.13-15.74 37.89-18.82L37.89-18.82L37.89-18.82Q43.65-21.89 46.98-26.56L46.98-26.56L46.98-26.56Q52.80-34.69 52.80-38.91L52.80-38.91L52.80-38.91Q52.80-41.47 50.56-42.18L50.56-42.18L50.56-42.18Q49.98-42.37 49.28-42.37ZM12.93-4.16L12.93-4.16L12.93-4.16Q11.39-6.27 9.73-9.57L9.73-9.57L9.73-9.57Q8.06-12.86 7.52-13.50L7.52-13.50L7.52-13.50Q6.98-14.14 6.78-14.14L6.78-14.14L6.78-14.14Q6.59-14.14 6.53-14.14L6.53-14.14L6.53-14.14Q5.38-13.95 4.03-10.05L4.03-10.05L4.03-10.05Q2.69-6.14 2.69-2.40L2.69-2.40L2.69-2.40Q2.69 1.34 4.99 1.34L4.99 1.34L4.99 1.34Q6.66 1.34 8.99-0.38L8.99-0.38L8.99-0.38Q11.33-2.11 12.93-4.16ZM45.38 0.83L45.38 0.83L45.38 0.83Q44.67 0.83 44.10 0.64L44.10 0.64L44.10 0.64Q40-0.51 40-3.97L40-3.97L40-3.97Q40-8.45 45.63-14.34L45.63-14.34L45.63-14.34Q51.26-20.22 55.74-20.22L55.74-20.22L55.74-20.22Q57.22-20.22 58.14-19.42L58.14-19.42L58.14-19.42Q59.07-18.62 59.07-17.47L59.07-17.47L59.07-17.47Q59.07-13.89 53.66-10.62L53.66-10.62L53.66-10.62Q48.26-7.36 44.86-7.36L44.86-7.36L44.86-7.36Q44.35-7.36 43.97-7.49L43.97-7.49L43.97-7.49Q43.01-5.76 43.01-3.84L43.01-3.84L43.01-3.84Q43.01-0.51 46.18-0.51L46.18-0.51L46.18-0.51Q49.34-0.51 54.40-4.80L54.40-4.80L54.40-4.80Q58.30-7.94 61.06-11.46L61.06-11.46L61.06-11.46Q61.63-12.22 62.05-12.22L62.05-12.22L62.05-12.22Q62.46-12.22 62.46-11.84L62.46-11.84L62.46-11.84Q62.46-11.46 61.95-10.75L61.95-10.75L61.95-10.75Q58.50-6.21 53.63-2.69L53.63-2.69L53.63-2.69Q48.77 0.83 45.38 0.83ZM57.47-17.60L57.47-17.60L57.47-17.60Q57.47-18.37 55.84-18.37L55.84-18.37L55.84-18.37Q54.21-18.37 51.20-15.87L51.20-15.87L51.20-15.87Q47.17-12.54 44.93-8.90L44.93-8.90L44.93-8.90Q45.31-8.77 45.76-8.77L45.76-8.77L45.76-8.77Q48.19-8.77 52.26-11.36L52.26-11.36L52.26-11.36Q56.32-13.95 57.34-17.02L57.34-17.02L57.34-17.02Q57.47-17.34 57.47-17.60ZM71.62 0.32L71.62 0.32L71.62 0.32Q66.82 0.32 66.82-4.99L66.82-4.99L66.82-4.99Q66.82-7.68 68.22-10.88L68.22-10.88L68.22-10.88Q69.63-14.08 71.30-16.26L71.30-16.26L71.30-16.26Q70.98-16.19 70.46-16.19L70.46-16.19L70.46-16.19Q68.93-16.19 67.90-18.37L67.90-18.37L63.17-12.22L63.17-12.22Q59.20-7.30 58.56-7.30L58.56-7.30L58.56-7.30Q58.24-7.30 58.24-7.55L58.24-7.55L58.24-7.55Q58.24-8.19 59.33-9.41L59.33-9.41L59.33-9.41Q64.90-15.87 67.20-20.35L67.20-20.35L67.20-20.35Q68.67-25.92 70.91-25.92L70.91-25.92L70.91-25.92Q72.38-25.92 72.38-24.64L72.38-24.64L72.38-24.64Q72.38-23.36 70.78-21.38L70.78-21.38L69.25-19.33L69.25-19.33Q69.25-17.98 71.23-17.98L71.23-17.98L71.23-17.98Q72.38-17.98 73.79-18.82L73.79-18.82L75.46-19.84L75.46-19.84Q75.58-19.90 76.10-19.90L76.10-19.90L76.10-19.90Q76.61-19.90 77.18-19.26L77.18-19.26L77.18-19.26Q77.76-18.62 77.57-18.11L77.57-18.11L73.15-12.54L73.15-12.54Q69.06-7.30 69.06-4.26L69.06-4.26L69.06-4.26Q69.06-1.22 71.87-1.22L71.87-1.22L71.87-1.22Q74.82-1.22 79.10-4.35L79.10-4.35L79.10-4.35Q81.66-6.21 83.78-8.51L83.78-8.51L83.78-8.51Q85.76-10.82 85.95-10.82L85.95-10.82L85.95-10.82Q86.40-10.82 86.40-10.34L86.40-10.34L86.40-10.34Q86.40-9.86 85.82-9.22L85.82-9.22L83.78-6.91L83.78-6.91Q82.05-5.12 79.94-3.46L79.94-3.46L79.94-3.46Q74.88 0.32 71.62 0.32ZM105.02-19.14L105.02-19.14L105.92-19.33L105.92-19.33Q106.62-19.33 107.26-18.75L107.26-18.75L107.26-18.75Q107.90-18.18 107.90-17.86L107.90-17.86L107.90-17.86Q107.90-17.54 103.94-11.68L103.94-11.68L103.94-11.68Q99.97-5.82 99.97-3.52L99.97-3.52L99.97-3.52Q99.97-3.33 100.03-3.14L100.03-3.14L100.03-3.14Q100.35-1.66 101.44-1.66L101.44-1.66L101.44-1.66Q104.77-1.66 113.60-12.67L113.60-12.67L113.60-12.67Q113.79-12.93 114.05-12.93L114.05-12.93L114.05-12.93Q114.30-12.93 114.30-12.45L114.30-12.45L114.30-12.45Q114.30-11.97 113.73-11.20L113.73-11.20L113.73-11.20Q105.54-0.26 101.25-0.26L101.25-0.26L101.25-0.26Q100.67-0.26 100.16-0.45L100.16-0.45L100.16-0.45Q97.34-1.54 97.34-4.67L97.34-4.67L97.34-4.67Q97.34-5.76 97.60-6.85L97.60-6.85L93.63-3.01L93.63-3.01Q89.86 0.32 88.16 0.32L88.16 0.32L88.16 0.32Q86.46 0.32 84.93-0.77L84.93-0.77L84.93-0.77Q83.20-2.05 83.20-4.16L83.20-4.16L83.20-4.16Q83.20-8.83 89.73-15.33L89.73-15.33L89.73-15.33Q96.26-21.82 101.70-21.82L101.70-21.82L101.70-21.82Q103.81-21.82 104.51-20.35L104.51-20.35L104.51-20.35Q104.70-19.84 104.83-19.49L104.83-19.49L104.83-19.49Q104.96-19.14 105.02-19.14ZM85.89-3.39L85.89-3.39L85.89-3.39Q85.89-1.09 87.49-1.09L87.49-1.09L87.49-1.09Q91.20-1.09 97.60-9.22L97.60-9.22L104.38-18.56L104.38-18.56Q103.87-19.46 102.72-19.46L102.72-19.46L102.72-19.46Q98.82-19.46 92.35-13.41L92.35-13.41L92.35-13.41Q85.89-7.36 85.89-3.39ZM111.94-4.29L111.94-4.29L111.94-4.29Q111.94-11.20 116.03-17.98L116.03-17.98L116.03-17.98Q111.30-20.99 111.30-26.88L111.30-26.88L111.30-26.88Q111.30-33.98 117.57-39.49L117.57-39.49L117.57-39.49Q124.61-45.70 135.74-45.70L135.74-45.70L135.74-45.70Q140.86-45.70 146.75-44.22L146.75-44.22L146.75-44.22Q148.10-43.90 158.21-39.26L158.21-39.26L158.21-39.26Q168.32-34.62 172.74-34.62L172.74-34.62L172.74-34.62Q175.68-34.62 177.15-36.29L177.15-36.29L177.15-36.29Q177.92-37.12 177.92-38.08L177.92-38.08L177.92-38.08Q177.92-39.04 177.09-39.81L177.09-39.81L177.09-39.81Q176.64-40.45 176.64-40.64L176.64-40.64L176.64-40.64Q176.64-40.83 176.99-40.83L176.99-40.83L176.99-40.83Q177.34-40.83 178.21-39.71L178.21-39.71L178.21-39.71Q179.07-38.59 179.07-37.09L179.07-37.09L179.07-37.09Q179.07-35.58 177.06-34.21L177.06-34.21L177.06-34.21Q175.04-32.83 171.97-32.83L171.97-32.83L171.97-32.83Q167.17-32.83 157.06-37.47L157.06-37.47L157.06-37.47Q146.94-42.11 144.35-42.62L144.35-42.62L144.35-42.62Q141.76-43.14 138.43-43.14L138.43-43.14L138.43-43.14Q125.18-43.14 117.57-34.56L117.57-34.56L117.57-34.56Q116.67-33.60 115.46-30.69L115.46-30.69L115.46-30.69Q114.24-27.78 114.24-25.09L114.24-25.09L114.24-25.09Q114.24-21.38 116.86-19.33L116.86-19.33L116.86-19.33Q120.19-24.19 124.74-27.07L124.74-27.07L124.74-27.07Q129.28-29.95 133.95-29.95L133.95-29.95L133.95-29.95Q139.71-29.95 139.71-25.47L139.71-25.47L139.71-25.47Q139.71-20.10 133.41-13.79L133.41-13.79L133.41-13.79Q127.10-7.49 121.73-7.49L121.73-7.49L121.73-7.49Q118.27-7.49 118.27-10.43L118.27-10.43L118.27-10.43Q118.27-11.46 118.82-12.22L118.82-12.22L118.82-12.22Q119.36-12.99 120.13-12.80L120.13-12.80L120-11.33L120-11.33Q120-10.37 122.94-10.37L122.94-10.37L122.94-10.37Q127.30-10.37 132.13-14.85L132.13-14.85L132.13-14.85Q136.96-19.33 137.98-23.62L137.98-23.62L137.98-23.62Q138.24-24.58 138.24-25.34L138.24-25.34L138.24-25.34Q138.24-28.22 134.56-28.22L134.56-28.22L134.56-28.22Q130.88-28.22 126.94-25.41L126.94-25.41L126.94-25.41Q123.01-22.59 119.55-17.98L119.55-17.98L119.55-17.98Q119.81-17.86 121.54-17.47L121.54-17.47L125.38-17.34L125.38-17.34Q128.19-17.22 128.19-16.70L128.19-16.70L128.19-16.70Q128.19-15.81 125.50-15.81L125.50-15.81L125.50-15.81Q125.31-15.81 125.12-15.81L125.12-15.81L125.12-15.81Q121.22-15.81 118.72-16.77L118.72-16.77L118.72-16.77Q113.79-9.22 113.79-2.88L113.79-2.88L113.79-2.88Q113.79 5.31 120.13 5.31L120.13 5.31L120.13 5.31Q127.30 5.31 135.04-4.67L135.04-4.67L147.58-23.36L147.58-23.36Q154.62-33.60 159.81-33.86L159.81-33.86L162.24-33.28L162.24-33.28Q163.39-32.64 163.39-31.36L163.39-31.36L163.39-31.36Q163.39-30.08 162.75-30.08L162.75-30.08L160.70-30.40L160.70-30.40Q156.29-30.40 149.38-20.86L149.38-20.86L136.64-3.07L136.64-3.07Q128.45 6.46 120.96 6.46L120.96 6.46L120.96 6.46Q115.84 6.46 113.89 3.71L113.89 3.71L113.89 3.71Q111.94 0.96 111.94-4.29ZM155.71 0.83L155.71 0.83L155.71 0.83Q155.01 0.83 154.43 0.64L154.43 0.64L154.43 0.64Q150.34-0.51 150.34-3.97L150.34-3.97L150.34-3.97Q150.34-8.45 155.97-14.34L155.97-14.34L155.97-14.34Q161.60-20.22 166.08-20.22L166.08-20.22L166.08-20.22Q167.55-20.22 168.48-19.42L168.48-19.42L168.48-19.42Q169.41-18.62 169.41-17.47L169.41-17.47L169.41-17.47Q169.41-13.89 164-10.62L164-10.62L164-10.62Q158.59-7.36 155.20-7.36L155.20-7.36L155.20-7.36Q154.69-7.36 154.30-7.49L154.30-7.49L154.30-7.49Q153.34-5.76 153.34-3.84L153.34-3.84L153.34-3.84Q153.34-0.51 156.51-0.51L156.51-0.51L156.51-0.51Q159.68-0.51 164.74-4.80L164.74-4.80L164.74-4.80Q168.64-7.94 171.39-11.46L171.39-11.46L171.39-11.46Q171.97-12.22 172.38-12.22L172.38-12.22L172.38-12.22Q172.80-12.22 172.80-11.84L172.80-11.84L172.80-11.84Q172.80-11.46 172.29-10.75L172.29-10.75L172.29-10.75Q168.83-6.21 163.97-2.69L163.97-2.69L163.97-2.69Q159.10 0.83 155.71 0.83ZM167.81-17.60L167.81-17.60L167.81-17.60Q167.81-18.37 166.18-18.37L166.18-18.37L166.18-18.37Q164.54-18.37 161.54-15.87L161.54-15.87L161.54-15.87Q157.50-12.54 155.26-8.90L155.26-8.90L155.26-8.90Q155.65-8.77 156.10-8.77L156.10-8.77L156.10-8.77Q158.53-8.77 162.59-11.36L162.59-11.36L162.59-11.36Q166.66-13.95 167.68-17.02L167.68-17.02L167.68-17.02Q167.81-17.34 167.81-17.60ZM171.39-3.20L171.39-3.20L171.39-3.20Q171.39-1.28 173.50-1.28L173.50-1.28L173.50-1.28Q175.62-1.28 178.94-3.52L178.94-3.52L178.94-3.52Q182.27-5.76 185.41-9.60L185.41-9.60L185.41-9.60Q186.18-10.62 186.62-10.62L186.62-10.62L186.62-10.62Q187.07-10.62 187.07-10.24L187.07-10.24L187.07-10.24Q187.07-9.86 184.45-6.91L184.45-6.91L184.45-6.91Q178.05 0.13 173.76 0.13L173.76 0.13L173.76 0.13Q171.65 0.13 170.18-0.86L170.18-0.86L170.18-0.86Q168.70-1.86 168.70-3.94L168.70-3.94L168.70-3.94Q168.70-6.02 169.79-8.77L169.79-8.77L169.79-8.77Q171.65-13.12 175.74-19.71L175.74-19.71L175.74-19.71Q183.23-31.87 186.37-31.87L186.37-31.87L186.37-31.87Q187.01-31.87 187.68-31.39L187.68-31.39L187.68-31.39Q188.35-30.91 188.42-30.34L188.42-30.34L188.42-30.34Q186.94-28.35 182.75-22.72L182.75-22.72L182.75-22.72Q178.56-17.09 176.96-14.62L176.96-14.62L176.96-14.62Q175.36-12.16 174.56-10.94L174.56-10.94L174.56-10.94Q173.76-9.73 173.38-9.06L173.38-9.06L173.38-9.06Q172.99-8.38 172.48-7.30L172.48-7.30L172.48-7.30Q171.39-5.12 171.39-3.20ZM187.71 0.83L187.71 0.83L187.71 0.83Q187.01 0.83 186.43 0.64L186.43 0.64L186.43 0.64Q182.34-0.51 182.34-3.97L182.34-3.97L182.34-3.97Q182.34-8.45 187.97-14.34L187.97-14.34L187.97-14.34Q193.60-20.22 198.08-20.22L198.08-20.22L198.08-20.22Q199.55-20.22 200.48-19.42L200.48-19.42L200.48-19.42Q201.41-18.62 201.41-17.47L201.41-17.47L201.41-17.47Q201.41-13.89 196-10.62L196-10.62L196-10.62Q190.59-7.36 187.20-7.36L187.20-7.36L187.20-7.36Q186.69-7.36 186.30-7.49L186.30-7.49L186.30-7.49Q185.34-5.76 185.34-3.84L185.34-3.84L185.34-3.84Q185.34-0.51 188.51-0.51L188.51-0.51L188.51-0.51Q191.68-0.51 196.74-4.80L196.74-4.80L196.74-4.80Q200.64-7.94 203.39-11.46L203.39-11.46L203.39-11.46Q203.97-12.22 204.38-12.22L204.38-12.22L204.38-12.22Q204.80-12.22 204.80-11.84L204.80-11.84L204.80-11.84Q204.80-11.46 204.29-10.75L204.29-10.75L204.29-10.75Q200.83-6.21 195.97-2.69L195.97-2.69L195.97-2.69Q191.10 0.83 187.71 0.83ZM199.81-17.60L199.81-17.60L199.81-17.60Q199.81-18.37 198.18-18.37L198.18-18.37L198.18-18.37Q196.54-18.37 193.54-15.87L193.54-15.87L193.54-15.87Q189.50-12.54 187.26-8.90L187.26-8.90L187.26-8.90Q187.65-8.77 188.10-8.77L188.10-8.77L188.10-8.77Q190.53-8.77 194.59-11.36L194.59-11.36L194.59-11.36Q198.66-13.95 199.68-17.02L199.68-17.02L199.68-17.02Q199.81-17.34 199.81-17.60ZM214.72-2.30L212.67-0.96L212.67-0.96Q210.82 0.13 208.10 0.13L208.10 0.13L208.10 0.13Q205.38 0.13 203.94-1.66L203.94-1.66L203.94-1.66Q202.50-3.46 201.47-7.36L201.47-7.36L201.47-7.36Q200.32-6.21 199.87-6.21L199.87-6.21L199.87-6.21Q199.55-6.21 199.55-6.66L199.55-6.66L199.55-6.66Q199.55-7.10 199.87-7.42L199.87-7.42L199.87-7.42Q201.98-10.05 207.04-14.98L207.04-14.98L215.10-22.53L215.10-22.53Q218.56-25.79 219.20-25.79L219.20-25.79L219.20-25.79Q221.25-25.79 221.25-24.26L221.25-24.26L221.25-24.26Q221.25-23.49 220.64-22.75L220.64-22.75L220.64-22.75Q220.03-22.02 219.74-21.60L219.74-21.60L219.74-21.60Q219.46-21.18 219.14-20.80L219.14-20.80L219.14-20.80Q217.98-18.82 216.80-12.61L216.80-12.61L216.80-12.61Q215.62-6.40 214.98-3.97L214.98-3.97L214.98-3.97Q220.29-4.03 225.92-10.88L225.92-10.88L225.92-10.88Q226.56-11.52 226.88-11.52L226.88-11.52L226.88-11.52Q227.20-11.52 227.20-11.10L227.20-11.10L227.20-11.10Q227.20-10.69 226.62-9.98L226.62-9.98L226.62-9.98Q222.91-5.63 219.71-3.90L219.71-3.90L219.71-3.90Q217.79-2.94 214.72-2.30L214.72-2.30ZM204.03-8.06L204.03-8.06L204.03-8.06Q204.03-5.89 205.47-4.51L205.47-4.51L205.47-4.51Q206.91-3.14 208.70-3.14L208.70-3.14L208.70-3.14Q210.50-3.14 211.46-3.84L211.46-3.84L211.46-3.84Q212.74-4.54 213.98-9.73L213.98-9.73L213.98-9.73Q215.23-14.91 215.49-18.88L215.49-18.88L215.74-21.06L215.74-21.06Q212.22-18.43 208.22-14.27L208.22-14.27L208.22-14.27Q204.22-10.11 204.10-8.77L204.10-8.77L204.10-8.77Q204.03-8.38 204.03-8.06ZM239.04-0.26L239.04-0.26L239.04-0.26Q235.26-0.26 235.26-4.67L235.26-4.67L235.26-4.67Q235.26-7.17 237.02-10.21L237.02-10.21L237.02-10.21Q238.78-13.25 241.34-17.34L241.34-17.34L241.34-17.34Q233.15-13.25 226.50-5.25L226.50-5.25L226.50-5.25Q222.78 0.32 222.14 0.32L222.14 0.32L222.14 0.32Q220.29 0.32 220.29-0.77L220.29-0.77L220.29-0.77Q220.29-1.34 221.06-2.82L221.06-2.82L221.06-2.82Q227.26-13.89 230.46-19.01L230.46-19.01L230.46-19.01Q238.08-31.23 241.22-32.26L241.22-32.26L241.22-32.26Q241.34-32.32 241.47-32.32L241.47-32.32L241.47-32.32Q242.30-32.32 242.62-30.98L242.62-30.98L242.62-30.98Q242.43-29.63 235.97-21.25L235.97-21.25L235.97-21.25Q229.25-12.74 228.35-10.11L228.35-10.11L228.35-10.11Q230.72-11.84 236.61-15.94L236.61-15.94L236.61-15.94Q242.94-20.35 244.99-20.35L244.99-20.35L244.99-20.35Q247.04-20.35 247.04-18.75L247.04-18.75L247.04-18.75Q247.04-18.50 247.01-18.40L247.01-18.40L247.01-18.40Q246.98-18.30 242.56-12.35L242.56-12.35L242.56-12.35Q238.14-6.40 238.14-3.58L238.14-3.58L238.14-3.58Q238.14-2.11 239.23-2.11L239.23-2.11L239.23-2.11Q242.69-2.24 249.60-10.43L249.60-10.43L249.60-10.43Q250.18-11.01 250.46-11.01L250.46-11.01L250.46-11.01Q250.75-11.01 250.75-10.62L250.75-10.62L250.75-10.62Q250.75-9.34 244.42-3.71L244.42-3.71L244.42-3.71Q240.45-0.26 239.04-0.26ZM298.69 3.39L298.24 3.84L298.24 3.84Q276.42 3.84 249.54 4.67L249.54 4.67L249.54 4.67Q248.45 4.67 248.45 3.14L248.45 3.14L248.45 3.14Q248.45 1.60 249.54 1.60L249.54 1.60L296.90 1.60L296.90 1.60Q298.50 1.60 298.69 3.39L298.69 3.39ZM304.38 0.83L304.38 0.83L304.38 0.83Q303.68 0.83 303.10 0.64L303.10 0.64L303.10 0.64Q299.01-0.51 299.01-3.97L299.01-3.97L299.01-3.97Q299.01-8.45 304.64-14.34L304.64-14.34L304.64-14.34Q310.27-20.22 314.75-20.22L314.75-20.22L314.75-20.22Q316.22-20.22 317.15-19.42L317.15-19.42L317.15-19.42Q318.08-18.62 318.08-17.25L318.08-17.25L318.08-17.25Q318.08-15.87 317.25-14.37L317.25-14.37L317.25-14.37Q316.42-12.86 314.75-12.86L314.75-12.86L314.75-12.86Q313.09-12.86 313.09-13.89L313.09-13.89L313.09-13.89Q313.09-14.59 313.95-16.03L313.95-16.03L313.95-16.03Q314.82-17.47 314.82-17.57L314.82-17.57L314.82-17.57Q314.82-17.66 314.62-17.66L314.62-17.66L314.62-17.66Q312.83-17.47 309.73-15.10L309.73-15.10L309.73-15.10Q306.62-12.74 305.47-11.14L305.47-11.14L302.98-7.49L302.98-7.49Q302.34-6.46 302.05-5.06L302.05-5.06L302.05-5.06Q301.76-3.65 301.76-2.94L301.76-2.94L301.76-2.94Q301.76-2.24 302.56-1.34L302.56-1.34L302.56-1.34Q303.36-0.45 304.83-0.45L304.83-0.45L304.83-0.45Q308.03-0.45 312.77-4.19L312.77-4.19L312.77-4.19Q317.50-7.94 320.06-11.33L320.06-11.33L320.06-11.33Q320.38-11.71 320.83-11.71L320.83-11.71L320.83-11.71Q321.28-11.71 321.28-11.46L321.28-11.46L321.28-11.46Q321.28-11.20 320.96-10.82L320.96-10.82L320.96-10.82Q317.44-6.14 312.54-2.66L312.54-2.66L312.54-2.66Q307.65 0.83 304.38 0.83ZM338.88-19.14L338.88-19.14L339.78-19.33L339.78-19.33Q340.48-19.33 341.12-18.75L341.12-18.75L341.12-18.75Q341.76-18.18 341.76-17.86L341.76-17.86L341.76-17.86Q341.76-17.54 337.79-11.68L337.79-11.68L337.79-11.68Q333.82-5.82 333.82-3.52L333.82-3.52L333.82-3.52Q333.82-3.33 333.89-3.14L333.89-3.14L333.89-3.14Q334.21-1.66 335.30-1.66L335.30-1.66L335.30-1.66Q338.62-1.66 347.46-12.67L347.46-12.67L347.46-12.67Q347.65-12.93 347.90-12.93L347.90-12.93L347.90-12.93Q348.16-12.93 348.16-12.45L348.16-12.45L348.16-12.45Q348.16-11.97 347.58-11.20L347.58-11.20L347.58-11.20Q339.39-0.26 335.10-0.26L335.10-0.26L335.10-0.26Q334.53-0.26 334.02-0.45L334.02-0.45L334.02-0.45Q331.20-1.54 331.20-4.67L331.20-4.67L331.20-4.67Q331.20-5.76 331.46-6.85L331.46-6.85L327.49-3.01L327.49-3.01Q323.71 0.32 322.02 0.32L322.02 0.32L322.02 0.32Q320.32 0.32 318.78-0.77L318.78-0.77L318.78-0.77Q317.06-2.05 317.06-4.16L317.06-4.16L317.06-4.16Q317.06-8.83 323.58-15.33L323.58-15.33L323.58-15.33Q330.11-21.82 335.55-21.82L335.55-21.82L335.55-21.82Q337.66-21.82 338.37-20.35L338.37-20.35L338.37-20.35Q338.56-19.84 338.69-19.49L338.69-19.49L338.69-19.49Q338.82-19.14 338.88-19.14ZM319.74-3.39L319.74-3.39L319.74-3.39Q319.74-1.09 321.34-1.09L321.34-1.09L321.34-1.09Q325.06-1.09 331.46-9.22L331.46-9.22L338.24-18.56L338.24-18.56Q337.73-19.46 336.58-19.46L336.58-19.46L336.58-19.46Q332.67-19.46 326.21-13.41L326.21-13.41L326.21-13.41Q319.74-7.36 319.74-3.39ZM357.12 0.77L357.12 0.77L357.12 0.77Q352.06 0.77 348.54-7.23L348.54-7.23L348.54-7.23Q347.65-5.89 344.51 0.32L344.51 0.32L344.51 0.32Q342.21-0.58 342.21-2.11L342.21-2.11L342.21-2.11Q342.21-4.86 350.46-17.22L350.46-17.22L350.46-17.22Q358.72-29.57 361.79-31.74L361.79-31.74L361.79-31.74Q362.05-31.94 362.82-31.94L362.82-31.94L362.82-31.94Q364.80-31.94 364.80-30.91L364.80-30.91L364.80-30.91Q364.80-30.40 360.35-25.15L360.35-25.15L360.35-25.15Q355.90-19.90 355.39-18.82L355.39-18.82L355.39-18.82Q361.22-21.82 364.67-21.82L364.67-21.82L364.67-21.82Q366.66-21.82 368.06-20.22L368.06-20.22L368.06-20.22Q369.41-18.88 369.41-17.47L369.41-17.47L369.41-17.47Q369.41-17.28 369.41-17.09L369.41-17.09L369.41-17.09Q368.90-13.44 364.29-11.07L364.29-11.07L364.29-11.07Q360.58-9.09 357.38-9.09L357.38-9.09L357.38-9.09Q354.18-9.09 352.90-9.92L352.90-9.92L352.90-9.92Q352.51-9.98 352.29-9.73L352.29-9.73L352.29-9.73Q352.06-9.47 352.19-9.09L352.19-9.09L352.19-9.09Q353.98-1.15 358.14-1.15L358.14-1.15L358.14-1.15Q360.32-1.15 363.74-3.58L363.74-3.58L363.74-3.58Q367.17-6.02 370.88-10.43L370.88-10.43L370.88-10.43Q371.33-10.88 371.68-10.88L371.68-10.88L371.68-10.88Q372.03-10.88 372.03-10.53L372.03-10.53L372.03-10.53Q372.03-10.18 371.58-9.54L371.58-9.54L371.58-9.54Q368.13-5.31 365.06-2.88L365.06-2.88L365.06-2.88Q360.38 0.77 357.12 0.77ZM366.34-18.82L366.34-18.82L366.34-18.82Q366.34-19.33 365.76-19.84L365.76-19.84L365.76-19.84Q365.18-20.35 364.54-20.35L364.54-20.35L364.54-20.35Q361.09-20.35 356.26-17.47L356.26-17.47L356.26-17.47Q351.42-14.59 350.34-10.94L350.34-10.94L350.34-10.94Q350.91-10.94 353.41-10.75L353.41-10.75L353.41-10.75Q356.29-10.75 360.96-13.12L360.96-13.12L360.96-13.12Q366.34-15.81 366.34-18.82ZM372.48 0.83L372.48 0.83L372.48 0.83Q371.78 0.83 371.20 0.64L371.20 0.64L371.20 0.64Q367.10-0.51 367.10-3.97L367.10-3.97L367.10-3.97Q367.10-8.45 372.74-14.34L372.74-14.34L372.74-14.34Q378.37-20.22 382.85-20.22L382.85-20.22L382.85-20.22Q384.32-20.22 385.25-19.42L385.25-19.42L385.25-19.42Q386.18-18.62 386.18-17.47L386.18-17.47L386.18-17.47Q386.18-13.89 380.77-10.62L380.77-10.62L380.77-10.62Q375.36-7.36 371.97-7.36L371.97-7.36L371.97-7.36Q371.46-7.36 371.07-7.49L371.07-7.49L371.07-7.49Q370.11-5.76 370.11-3.84L370.11-3.84L370.11-3.84Q370.11-0.51 373.28-0.51L373.28-0.51L373.28-0.51Q376.45-0.51 381.50-4.80L381.50-4.80L381.50-4.80Q385.41-7.94 388.16-11.46L388.16-11.46L388.16-11.46Q388.74-12.22 389.15-12.22L389.15-12.22L389.15-12.22Q389.57-12.22 389.57-11.84L389.57-11.84L389.57-11.84Q389.57-11.46 389.06-10.75L389.06-10.75L389.06-10.75Q385.60-6.21 380.74-2.69L380.74-2.69L380.74-2.69Q375.87 0.83 372.48 0.83ZM384.58-17.60L384.58-17.60L384.58-17.60Q384.58-18.37 382.94-18.37L382.94-18.37L382.94-18.37Q381.31-18.37 378.30-15.87L378.30-15.87L378.30-15.87Q374.27-12.54 372.03-8.90L372.03-8.90L372.03-8.90Q372.42-8.77 372.86-8.77L372.86-8.77L372.86-8.77Q375.30-8.77 379.36-11.36L379.36-11.36L379.36-11.36Q383.42-13.95 384.45-17.02L384.45-17.02L384.45-17.02Q384.58-17.34 384.58-17.60Z" fill="#080808"></path></g></g><style>text {
  font-size: 64px;
  font-family: Arial Black;
  dominant-baseline: central;
  text-anchor: middle;
}</style></svg>